# xmcd
#
# Track frame offsets:
#	150
#	19120
#	34673
#	53399
#	73066
#	87985
#	102707
#	115918
#	133412
#	150021
#	166968
#	182273
#	193126
#	209838
#	227669
#
# Disc length: 3299 seconds
#
# Revision: 1
# Processed by: cddbd v1.5.2PL0 Copyright (c) Steve Scherf et al.
# Submitted via: audiograbber 1.83.01
#
DISCID=c90ce10f
DTITLE=HOT COUNTRY HITS - CB VOL 217
DYEAR=1900
DGENRE=
TTITLE0=JUDD, CLEDUS T - MY CELLMATE THINKS I'M SEXY
TTITLE1=CHUCK WAGON - PLAY THAT COUNTRY MUSIC COWBOY
TTITLE2=JOLIE and THE WANTED - I WOULD
TTITLE3="EARL" PAUL CRAFT - HEY GIRLS..THIS IS EARL...I DIDN'T DIE
TTITLE4=JONES, KACEY and DELBERT - YOU'RE THE REASON OUR KIDS ARE UGLY
TTITLE5=ENGVALL, BILL - NOW THAT'S AWESOME
TTITLE6=CARRINGTON, RODNEY - MORE OF A MAN
TTITLE7=MESSINA, JO DEE - DOWNTIME
TTITLE8=WILLIAMS, HANK III - I DON'T KNOW
TTITLE9=KAYLE, KORTNEY - DON'T LET ME DOWN
TTITLE10=BELLAMY BROS - WHAT'LL I DO
TTITLE11=TRACTORS - CAN'T GET NOWHERE
TTITLE12=RIMES, LEANN - BUT I DO LOVE YOU
TTITLE13=SHENANDOAH - BUILDING A HOME
TTITLE14=GARNER, KRISTEN - LIGHTLY
EXTD=
EXTT0=
EXTT1=
EXTT2=
EXTT3=
EXTT4=
EXTT5=
EXTT6=
EXTT7=
EXTT8=
EXTT9=
EXTT10=
EXTT11=
EXTT12=
EXTT13=
EXTT14=
PLAYORDER=
